<svg xmlns="http://www.w3.org/2000/svg" viewBox="0 0 430 112" role="img" aria-labelledby="title desc">
  <title id="title">Leaning Studios refined logo</title>
  <desc id="desc">Leaning Studios red and green wordmark with a refined 11-sided LS shield.</desc>
  <rect width="430" height="112" fill="none"/>
  <g transform="translate(5 8)">
    <path d="M48 7 67 12 82 26 88 47 83 66 69 82 52 89 33 86 17 74 8 56 10 35 22 17Z" fill="#050607"/>
    <path d="M48 7 22 17 10 35 8 56 17 74 33 86 48 88" fill="none" stroke="#19b85a" stroke-width="4.25" stroke-linecap="round" stroke-linejoin="round"/>
    <path d="M48 7 67 12 82 26 88 47 83 66 69 82 52 89 48 88" fill="none" stroke="#b51626" stroke-width="4.25" stroke-linecap="round" stroke-linejoin="round"/>
    <path d="M35 32h8v23h15l-6 8H35Z" fill="#19b85a"/>
    <path d="M59 32h14l-5 7h-9c-3 0-5 1.5-5 4s2 4 5 4h5c8 0 12 5 12 12 0 8-6 13-15 13H47l6-8h9c3 0 5-1.5 5-4 0-2.5-2-4-5-4h-5c-7 0-12-5-12-12 0-8 6-12 14-12Z" fill="#b51626"/>
    <path d="M23 40h4M23 48h4M23 56h4M79 40h4M79 48h4M79 56h4" stroke="#f2efe7" stroke-width="1.8" stroke-linecap="round" opacity="0.62"/>
    <path d="M27 75h8l2-3 3 6 3-10 4 16 4-14 3 7 3-4 3 4h8l2-4 3 5 3-4 2 3h7" fill="none" stroke="#f2efe7" stroke-width="1.35" stroke-linecap="round" stroke-linejoin="round" opacity="0.66"/>
  </g>
  <text x="120" y="48" font-family="Inter, Arial, Helvetica, sans-serif" font-size="31" font-weight="900" letter-spacing="6.5" fill="#b51626">LEANING</text>
  <text x="120" y="84" font-family="Inter, Arial, Helvetica, sans-serif" font-size="31" font-weight="900" letter-spacing="6.5" fill="#19b85a">STUDIOS</text>
</svg>
