<svg xmlns="http://www.w3.org/2000/svg" viewBox="0 0 430 112" role="img" aria-labelledby="title desc">
  <title id="title">Leaning Studios refined logo</title>
  <desc id="desc">Leaning Studios red and green wordmark with a refined 11-sided LS shield.</desc>
  <rect width="430" height="112" fill="none"/>
  <g transform="translate(5 8)">
    <path d="M48 7 67 12 82 26 88 47 83 66 69 82 52 89 33 86 17 74 8 56 10 35 22 17Z" fill="#050607"/>
    <path d="M48 7 22 17 10 35 8 56 17 74 33 86 48 88" fill="none" stroke="#19b85a" stroke-width="4.25" stroke-linecap="round" stroke-linejoin="round"/>
    <path d="M48 7 67 12 82 26 88 47 83 66 69 82 52 89 48 88" fill="none" stroke="#b51626" stroke-width="4.25" stroke-linecap="round" stroke-linejoin="round"/>
    <path d="M29 24h11v31h19l-8 11H29Z" fill="#19b85a"/>
    <path d="M58 24h19l-8 10H58c-4 0-6 2-6 6 0 3 2 5 6 5h7c10 0 16 6 16 15 0 10-7 16-18 16H43l8-10h13c4 0 7-2 7-6 0-3-3-5-7-5h-7c-9 0-15-6-15-15 0-10 6-16 16-16Z" fill="#b51626"/>
    <path d="M22 36h4M22 44h4M22 52h4M22 60h4M80 36h4M80 44h4M80 52h4M80 60h4" stroke="#f2efe7" stroke-width="1.9" stroke-linecap="round" opacity="0.66"/>
    <path d="M25 75h8l2-3 3 7 4-13 4 18 4-15 3 8 3-4 3 4h7l2-4 3 6 3-5 2 3h8" fill="none" stroke="#f2efe7" stroke-width="1.45" stroke-linecap="round" stroke-linejoin="round" opacity="0.68"/>
  </g>
  <text x="120" y="48" font-family="Inter, Arial, Helvetica, sans-serif" font-size="31" font-weight="900" letter-spacing="6.5" fill="#b51626">LEANING</text>
  <text x="120" y="84" font-family="Inter, Arial, Helvetica, sans-serif" font-size="31" font-weight="900" letter-spacing="6.5" fill="#19b85a">STUDIOS</text>
</svg>
