<svg xmlns="http://www.w3.org/2000/svg" viewBox="0 0 96 96" role="img" aria-labelledby="title desc">
  <title id="title">Leaning Studios shield mark</title>
  <desc id="desc">Simplified 11-sided Leaning Studios LS shield for compact logo use.</desc>
  <path d="M48 6 70 13 85 29 89 53 79 74 59 88 37 88 17 74 7 53 11 29 26 13Z" fill="#050607"/>
  <path d="M48 6 26 13 11 29 7 53 17 74 37 88 48 88" fill="none" stroke="#19b85a" stroke-width="5" stroke-linejoin="round"/>
  <path d="M48 6 70 13 85 29 89 53 79 74 59 88 48 88" fill="none" stroke="#b51626" stroke-width="5" stroke-linejoin="round"/>
  <path d="M31 26h10v29h20l-9 11H31Z" fill="#19b85a"/>
  <path d="M58 28h19l-8 9H56c-4 0-7 3-7 7s3 7 7 7h8c9 0 15 6 15 14s-7 13-16 13H42l8-9h14c4 0 7-2 7-6 0-3-3-5-7-5h-8c-9 0-15-6-15-14 0-9 7-16 17-16Z" fill="#b51626"/>
  <g opacity="0.78">
    <path d="M22 36h5M22 45h5M22 54h5M76 36h5M76 45h5M76 54h5" stroke="#f2efe7" stroke-width="2" stroke-linecap="round"/>
    <path d="M23 74h9l2-4 3 8 4-12 4 16 4-14 3 8 4-4 3 4h8l2-4 3 6 3-5 2 3h7" fill="none" stroke="#f2efe7" stroke-width="1.5" stroke-linecap="round" stroke-linejoin="round"/>
  </g>
</svg>
