<svg xmlns="http://www.w3.org/2000/svg" viewBox="0 0 64 64">
  <path d="M32 4 47 9 57 20 60 36 53 50 40 59 24 59 11 50 4 36 7 20 17 9Z" fill="#050607"/>
  <path d="M32 4 17 9 7 20 4 36 11 50 24 59 32 59" fill="none" stroke="#19b85a" stroke-width="4" stroke-linejoin="round"/>
  <path d="M32 4 47 9 57 20 60 36 53 50 40 59 32 59" fill="none" stroke="#b51626" stroke-width="4" stroke-linejoin="round"/>
  <path d="M21 18h7v20h14l-6 8H21Z" fill="#19b85a"/>
  <path d="M39 19h13l-6 7h-8c-3 0-5 2-5 5s2 5 5 5h4c7 0 11 4 11 10s-5 10-12 10H27l6-7h9c3 0 5-2 5-4s-2-3-5-3h-5c-6 0-10-4-10-10 0-7 5-13 12-13Z" fill="#b51626"/>
</svg>
