<svg xmlns="http://www.w3.org/2000/svg" viewBox="0 0 64 64">
  <path d="M32 5 45 8 55 18 59 32 56 45 46 55 35 60 22 58 11 50 5 37 6 24 15 12Z" fill="#050607"/>
  <path d="M32 5 15 12 6 24 5 37 11 50 22 58 32 59" fill="none" stroke="#19b85a" stroke-width="3.8" stroke-linecap="round" stroke-linejoin="round"/>
  <path d="M32 5 45 8 55 18 59 32 56 45 46 55 35 60 32 59" fill="none" stroke="#b51626" stroke-width="3.8" stroke-linecap="round" stroke-linejoin="round"/>
  <path d="M24 22h6v17h11l-5 6H24Z" fill="#19b85a"/>
  <path d="M39 22h10l-4 6h-6c-3 0-4 1-4 3s1 3 4 3h4c6 0 9 4 9 9 0 7-5 10-11 10H31l5-6h6c2 0 4-1 4-3s-2-3-4-3h-4c-6 0-9-4-9-9 0-6 4-10 10-10Z" fill="#b51626"/>
</svg>
